<?xml version="1.0" standalone="no"?>
<!DOCTYPE svg PUBLIC "-//W3C//DTD SVG 20010904//EN"
 "http://www.w3.org/TR/2001/REC-SVG-20010904/DTD/svg10.dtd">
<svg version="1.0" xmlns="http://www.w3.org/2000/svg"
 width="700.000000pt" height="700.000000pt" viewBox="0 0 700.000000 700.000000"
 preserveAspectRatio="xMidYMid meet">
<metadata>
Created by potrace 1.14, written by Peter Selinger 2001-2017
</metadata>
<g transform="translate(0.000000,700.000000) scale(0.100000,-0.100000)"
fill="#000000" stroke="none">
<path d="M426 5234 c-143 -34 -289 -148 -358 -280 -72 -136 -68 -41 -65 -1624
2 -1372 3 -1426 21 -1460 24 -46 75 -90 123 -106 31 -11 626 -14 3348 -14
2356 0 3321 3 3349 11 56 15 102 56 131 113 l25 50 -1 400 c-1 409 -4 461 -40
601 -77 303 -300 585 -578 733 -65 35 -442 188 -522 212 -15 4 -42 15 -60 23
-19 8 -99 41 -179 72 -156 62 -312 136 -510 240 -69 37 -195 103 -280 147 -85
45 -186 98 -225 118 -38 20 -124 65 -190 100 -66 34 -167 87 -225 118 -58 30
-145 76 -195 102 -49 26 -142 74 -205 107 -269 142 -308 161 -367 181 -147 51
-311 68 -458 48 -121 -17 -282 -76 -373 -137 -24 -16 -45 -29 -48 -29 -3 0
-32 -18 -64 -40 -287 -195 -440 -254 -640 -245 -216 9 -259 27 -665 285 -77
49 -145 93 -152 99 -7 6 -15 11 -18 11 -3 0 -40 23 -82 51 -102 67 -138 85
-221 108 -81 22 -191 24 -276 5z"/>
</g>
</svg>
